<svg id="Layer_1" data-name="Layer 1" xmlns="http://www.w3.org/2000/svg" viewBox="0 0 400 47.04"><defs><style>.cls-1{fill:#fff;}</style></defs><title>monovoce_logo</title><path class="cls-1" d="M48.63.8A20.61,20.61,0,0,0,34.1,6.71,20.62,20.62,0,0,0,19.52.8C9.95.8.3,7.51.29,18.14l0,0V47.1H9.63v-28h0c0-5.46,5-8.91,9.87-8.91s9.81,3.35,9.87,8.81V47.1h9.36v-28h0c0-5.46,5-8.91,9.87-8.91s9.88,3.39,9.88,8.91h0v28h9.36V18.16h0C67.86,7.41,58.2.8,48.63.8Z" transform="translate(-0.27 -0.07)"/><path class="cls-1" d="M96.64.07C83.68.07,75,9.64,75,23.58S83.68,47.1,96.64,47.1s21.65-9.53,21.65-23.52S109.61.07,96.64.07Zm0,37c-7.45,0-12.43-5.5-12.43-13.51s5-13.51,12.43-13.51,12.44,5.47,12.44,13.51S104.09,37.1,96.64,37.1Z" transform="translate(-0.27 -0.07)"/><path class="cls-1" d="M135.14,47.1v-28h0c0-5.46,5-8.91,9.87-8.91s9.88,3.39,9.88,8.91h0v28h9.36V18.16h0C164.25,7.41,154.59.8,145,.8S125.8,7.51,125.79,18.14l0,0V47.1Z" transform="translate(-0.27 -0.07)"/><path class="cls-1" d="M252.34.13l-9.18,34.24-.11.4a3.17,3.17,0,0,1-6.16,0l-.11-.4L227.62.13h-9.69l9.85,36.75a12.39,12.39,0,0,0,24.4,0L262,.13Z" transform="translate(-0.27 -0.07)"/><path class="cls-1" d="M193.42.07c-13,0-21.64,9.57-21.64,23.52s8.68,23.52,21.64,23.52,21.65-9.53,21.65-23.52S206.39.07,193.42.07Zm0,37C186,37.1,181,31.6,181,23.59s5-13.51,12.43-13.51,12.44,5.47,12.44,13.51S200.87,37.1,193.42,37.1Z" transform="translate(-0.27 -0.07)"/><path class="cls-1" d="M286,.07c-13,0-21.64,9.57-21.64,23.52S273,47.1,286,47.1s21.65-9.53,21.65-23.52S299,.07,286,.07Zm0,37c-7.45,0-12.43-5.5-12.43-13.51s5-13.51,12.43-13.51,12.44,5.47,12.44,13.51S293.46,37.1,286,37.1Z" transform="translate(-0.27 -0.07)"/><path class="cls-1" d="M345.36,32.82a11.81,11.81,0,0,1-9.45,4.28c-7.45,0-12.43-5.5-12.43-13.51s5-13.51,12.43-13.51a11.82,11.82,0,0,1,9.35,4.15l6.95-6.95C348.38,2.72,342.74.07,335.9.07c-13,0-21.64,9.57-21.64,23.52S322.93,47.1,335.9,47.1c6.91,0,12.59-2.7,16.4-7.34Z" transform="translate(-0.27 -0.07)"/><path class="cls-1" d="M388.09,32.8A12.4,12.4,0,0,1,366.76,28H400a31.28,31.28,0,0,0,.31-4.42c0-14-8.68-23.52-21.65-23.52S357,9.64,357,23.58s8.68,23.52,21.64,23.52c6.91,0,12.6-2.71,16.41-7.35Zm-9.47-22.73a11.74,11.74,0,0,1,11.71,8.57H366.92A11.75,11.75,0,0,1,378.63,10.08Z" transform="translate(-0.27 -0.07)"/></svg>